Simulation
nRows=49
nColumns=15
endheader
time  TH_x TH_y TH_z SC_y  SC_z  SC_x  AC_y  AC_z  AC_x  GH_y  GH_z  GH_yy  EL_x  PS_y
1.95  0.000000  0.000000  0.000000  -29.643298120268337  10.034705247376111  10.52180558017342  56.48615712653189  20.243369724657057  8.925928435999818  50.80451558733789  60.574750700650014  -42.21749124044199  22.370876386451055  0.000000
1.989  0.000000  0.000000  0.000000  -29.3462944898328  9.619899463799477  10.135777862741541  56.49837743659944  19.810288683500563  8.405220519805779  50.791063740448756  59.5164126761945  -41.217729284288325  22.568652497164116  0.000000
2.028  0.000000  0.000000  0.000000  -29.031441992637202  9.167626753356272  9.785543718457305  56.49104552102422  19.317059147194424  7.8327517305353735  50.820688101845  58.29315159085198  -40.27798311964999  22.763063627818333  0.000000
2.067  0.000000  0.000000  0.000000  -28.702449488808803  8.689193943726256  9.461729947566912  56.46969601106515  18.778830300811357  7.2275616957698405  50.88747315133371  56.91217950760597  -39.41961619543263  22.94850803985972  0.000000
2.106  0.000000  0.000000  0.000000  -28.352180688556412  8.187489238148704  9.163920073969223  56.434396485964946  18.18272875558131  6.598121629277075  50.956755308080105  55.405065931482355  -38.57438397311358  23.108210546278833  0.000000
2.145  0.000000  0.000000  0.000000  -27.96044535990027  7.6618787284774585  8.869317159376896  56.38669617524281  17.542154852510368  5.9480632765866925  50.9794355514229  53.81150185011002  -37.64948824828708  23.230872929973337  0.000000
2.184  0.000000  0.000000  0.000000  -27.532140807004083  7.11093551797403  8.58645249149708  56.3247588269113  16.836919017329674  5.281422091681796  50.918056882003235  52.17129019481703  -36.56318899482493  23.316181654958324  0.000000
2.223  0.000000  0.000000  0.000000  -27.080635077721794  6.533380822172863  8.301711498485943  56.25427954149544  16.093417893959348  4.609208723689379  50.74681629880318  50.50619756970005  -35.300332236754876  23.371771365764697  0.000000
2.262  0.000000  0.000000  0.000000  -26.64180395361715  5.932563409404036  8.049403392830746  56.18314288780849  15.296107306820854  3.9400893853286987  50.44816829668829  48.8174064422004  -33.89285636168017  23.401797017431058  0.000000
2.301  0.000000  0.000000  0.000000  -26.250726713837878  5.308027497228514  7.812867938869865  56.12049522899197  14.479482315990234  3.292910930832154  50.01204136824077  47.10039250422174  -32.37331333346199  23.439599080689486  0.000000
2.34  0.000000  0.000000  0.000000  -25.92716457341635  4.666453942044524  7.617865642869328  56.06128804547345  13.619934496607758  2.667958127385143  49.4271020441839  45.35426914046479  -30.73802644262067  23.504436121929416  0.000000
2.379  0.000000  0.000000  0.000000  -25.650505212886905  4.016536036506198  7.422011150848301  55.985189646286635  12.757052604853506  2.0784983529982526  48.67503117950167  43.57758042656663  -28.93673015229554  23.611291681357073  0.000000
2.418  0.000000  0.000000  0.000000  -25.4012171682022  3.372541771129167  7.233223970667522  55.85907957322695  11.871724336310697  1.510287165750526  47.73631382883996  41.783054346125304  -26.898405628253663  23.77894225429614  0.000000
2.457  0.000000  0.000000  0.000000  -25.1580575729017  2.745856734240188  7.022775501791403  55.66650261744508  10.999195532400012  0.9717243081675404  46.588179205252146  39.969062667198074  -24.561915633241163  24.01481280708687  0.000000
2.496  0.000000  0.000000  0.000000  -24.928170398649275  2.145158921951805  6.810072030704706  55.3956237118357  10.121906454627927  0.44748499128821595  45.2035849144047  38.15844307046406  -21.910474014738874  24.332555744748095  0.000000
2.535  0.000000  0.000000  0.000000  -24.732434200064752  1.5794676174135533  6.581433296189741  55.05543233996342  9.26748127367208  -0.04100623906805817  43.57524213394007  36.35280194591236  -18.923104803383588  24.72881140395143  0.000000
2.574  0.000000  0.000000  0.000000  -24.577799021037208  1.0563708201798772  6.36197315690444  54.64081961423788  8.423192942915252  -0.5175863691995429  41.69551383060592  34.57786765406207  -15.6235124965269  25.212521696750485  0.000000
2.613  0.000000  0.000000  0.000000  -24.4797574506443  0.591024217399983  6.144819519419639  54.17277809247605  7.602628493927939  -0.9495892016877862  39.563062271071956  32.831674026361405  -12.049051325259288  25.750105220648084  0.000000
2.652  0.000000  0.000000  0.000000  -24.421744787593873  0.18609703265876276  5.9262895147900885  53.6669967085515  6.818755012703483  -1.3476719373605979  37.18018133982  31.132660914109593  -8.277441053107964  26.30936625710038  0.000000
2.691  0.000000  0.000000  0.000000  -24.398701471343216  -0.15220863811288796  5.70395031542746  53.14903007150065  6.067037138794257  -1.6791775866071394  34.55972848547772  29.467440367394165  -4.396175675682504  26.8239397390034  0.000000
2.73  0.000000  0.000000  0.000000  -24.39194300784367  -0.42608078875786937  5.455406173974511  52.62632763956794  5.368540860181745  -1.952185751698196  31.745694878791955  27.84886571608103  -0.49902928214292935  27.25917328248  0.000000
2.769  0.000000  0.000000  0.000000  -24.41235346147196  -0.6216956332586777  5.189791073056223  52.08289138404955  4.7223509073850645  -2.160286446212293  28.81056330391485  26.258316831811975  3.357283020966557  27.585115769605093  0.000000
2.808  0.000000  0.000000  0.000000  -24.44063505355272  -0.7319373036767235  4.89321614319534  51.49782287431879  4.146106249517473  -2.33535961245761  25.847368197011217  24.716594605254596  7.112559049729002  27.800042435297506  0.000000
2.847  0.000000  0.000000  0.000000  -24.50352894471086  -0.7419329793628752  4.594055472848134  50.83932767600455  3.6226637344306822  -2.495510942111432  22.952255292110415  23.225723052129915  10.735924546962107  27.906135291262835  0.000000
2.886  0.000000  0.000000  0.000000  -24.58742716717106  -0.6399591820616527  4.24693129079986  50.12865824911202  3.1631997088407022  -2.635521683051843  20.19412657806921  21.822800815176777  14.147521581129194  27.916017397925707  0.000000
2.925  0.000000  0.000000  0.000000  -24.727456020297666  -0.4432069747493091  3.865941437340109  49.41054503027686  2.744539971715001  -2.752438698009733  17.608242433928954  20.52546258173509  17.315594317882606  27.80208024417775  0.000000
2.964  0.000000  0.000000  0.000000  -24.947481345304574  -0.1658332414090191  3.433136901047549  48.707444266319  2.367043087428084  -2.8155306564735207  15.176050007616807  19.333297033862355  20.216458770470396  27.590979373875395  0.000000
3.003  0.000000  0.000000  0.000000  -25.235259712055456  0.20490489879649965  2.886435830805759  48.15018741071033  2.078984133158732  -2.8043206239851624  12.837703463790707  18.229164040064802  22.924005277361903  27.29902971421355  0.000000
3.042  0.000000  0.000000  0.000000  -25.561105756433605  0.5952986264085456  2.332557995876603  47.70820896570068  1.8641093494274794  -2.7860647394241953  10.490617354301778  17.18147810202392  25.594837303590484  27.01064063248409  0.000000
3.081  0.000000  0.000000  0.000000  -25.845538335501633  0.9394192095578511  1.7390940627560862  47.34253907144188  1.82266254453998  -2.727346098836565  8.003055011943184  16.137669415674516  28.355237522416456  26.79140694290571  0.000000
3.12  0.000000  0.000000  0.000000  -26.04249541786285  1.2036866674907853  1.077105835499133  47.066693832530795  1.9664917681122613  -2.561981742220335  5.304928604013215  15.105238262119395  31.244072310426944  26.639542667932055  0.000000
3.159  0.000000  0.000000  0.000000  -26.098785847482716  1.3996246877778251  0.5208899943670114  46.68317062699275  2.1620833929761423  -2.313326544507156  2.3644215469029177  14.015064214704001  34.20283793775941  26.453955867563305  0.000000
3.198  0.000000  0.000000  0.000000  -25.95192922793831  1.5231704182793038  -0.24662355513320702  45.85806494921064  2.6427242886656277  -1.7292807576860256  -0.6932357304131939  12.869135051144264  37.168463494958736  26.227633155404064  0.000000
3.237  0.000000  0.000000  0.000000  -25.77395455113122  1.466212509440809  -1.3807943922402142  44.77200770906387  3.4880995210045604  -0.7560964241261232  -3.6800293466586544  11.889847816493694  39.92821182075361  25.87346009677207  0.000000
3.276  0.000000  0.000000  0.000000  -25.715448283424333  1.6833475061963643  -2.916040478097862  44.101370908473285  4.55306843499345  0.6754069724339283  -6.503940035866414  11.054084166401317  42.02276909584895  25.6192322901218  0.000000
3.315  0.000000  0.000000  0.000000  -25.89785379444027  2.3887673420210285  -5.121851150729445  44.51680943103214  6.073883140505826  2.57247273524893  -8.942466468979172  10.353061656294122  43.41278043486106  25.694990470140283  0.000000
3.354  0.000000  0.000000  0.000000  -25.89318921764349  2.6376921097444774  -7.88183724842526  44.6291300746197  7.999228525006144  4.789119624995131  -11.251497053859126  9.931164531886077  44.24680264508448  25.630323397484652  0.000000
3.393  0.000000  0.000000  0.000000  -25.974240564952492  2.9042336071489756  -11.057489539455538  43.32335854972224  9.838602773832056  7.947407073685568  -13.291045820537873  9.537735226075636  44.996523035017724  25.35319929376702  0.000000
3.432  0.000000  0.000000  0.000000  -26.193324744464686  3.909758223091793  -14.475853537187199  44.17777094356733  12.328848137264186  10.763411870664056  -15.125887923514645  8.99553533040303  44.89774928038785  25.929973442131413  0.000000
3.471  0.000000  0.000000  0.000000  -25.960443136468417  4.3497645281961965  -18.288638753292858  44.736734957142225  14.85818676848639  14.025813466826774  -17.039887312808  9.059063174936874  44.53998508989064  26.248932593028467  0.000000
3.51  0.000000  0.000000  0.000000  -24.977110820222556  4.2962179928859365  -23.32358600760822  41.73875074880045  17.77113399068215  19.03598602451307  -18.608401494468904  8.7237024610852  44.914397848548305  26.768865559102004  0.000000
3.549  0.000000  0.000000  0.000000  -24.752635174086517  3.9065958262706215  -30.647819293794658  41.732312012814894  24.2563904930229  23.843708385194887  -19.86700348000961  8.488827903068305  44.517569729376746  27.060887518482435  0.000000
3.588  0.000000  0.000000  0.000000  -27.14474718506865  4.044883874776569  -35.91936200804686  40.86181722614763  25.14165774028531  30.12141991849736  -20.710035475442584  10.457557440336497  44.6541841347847  25.788147670833883  0.000000
3.627  0.000000  0.000000  0.000000  -29.55363492134399  6.511742978972909  -38.66829457738182  45.127004670404894  23.916605525612738  32.58926547058802  -21.685554175627452  14.965911296938271  43.95789435240725  25.5193924120781  0.000000
3.666  0.000000  0.000000  0.000000  -28.430077829855577  5.703037223811565  -41.13768857912126  55.030627797204055  24.456383111719546  33.517470096002384  -28.089095881817485  27.206273212268428  42.66629118706147  24.14059313482875  0.000000
3.705  0.000000  0.000000  0.000000  -28.17036110391246  -2.2134924594808423  -46.545755067448205  44.606852559782176  35.93131329705774  40.07411845911299  -31.386812173513  31.727843890979425  46.54270932365348  27.270982697100994  0.000000
3.7439999999999998  0.000000  0.000000  0.000000  -27.200866657591234  5.257730728776445  -66.32344974720783  27.731894804489254  59.98199449781967  61.14176279576773  -27.452508123564165  29.245047180654705  47.42887157831607  27.96676980316156  0.000000
3.783  0.000000  0.000000  0.000000  -24.285659863240927  36.03149570494205  -94.2149417912501  34.695317999680206  47.96884098351621  106.95301115145868  -34.637134649947825  32.60072951437964  53.618499234589535  23.410807663242135  0.000000
3.822  0.000000  0.000000  0.000000  -19.53834926500011  44.19736064435237  -105.50305948782342  34.8569661058743  31.953177716730664  129.27493891439994  -43.00697592391413  33.84389121153276  59.44060718751161  20.820642507402095  0.000000
